<svg width="32" height="32" viewBox="0 0 32 32" fill="none" xmlns="http://www.w3.org/2000/svg">
  <rect width="32" height="32" rx="8" fill="#FF4DA6"/>
  <path d="M8 24V12.8C8 11.12 8 10.28 8.327 9.638C8.614 9.074 9.074 8.614 9.638 8.327C10.28 8 11.12 8 12.8 8H19.2C20.88 8 21.72 8 22.362 8.327C22.926 8.614 23.386 9.074 23.673 9.638C24 10.28 24 11.12 24 12.8V19.2C24 20.88 24 21.72 23.673 22.362C23.386 22.926 22.926 23.386 22.362 23.673C21.72 24 20.88 24 19.2 24H8Z" fill="white"/>
  <path d="M12 20V16.5L14.5 14L17 16.5V20H19V15L16 12L13 15V20H12Z" fill="#FF4DA6"/>
</svg>